<svg width="115" height="29" viewBox="0 0 115 29" fill="none" xmlns="http://www.w3.org/2000/svg">
<path d="M0 0H5.3505L14.6532 22.2068H14.9957L24.2984 0H29.6489V28.5676H25.4541V7.89514H25.183L16.5651 28.5257H13.0837L4.46588 7.88119H4.19479V28.5676H0V0Z" fill="white"/>
<path d="M45.1618 29C43.0025 29 41.1429 28.549 39.583 27.6469C38.0325 26.7356 36.834 25.4569 35.9874 23.811C35.1504 22.1557 34.7319 20.2168 34.7319 17.9942C34.7319 15.7996 35.1504 13.8653 35.9874 12.1914C36.834 10.5176 38.0135 9.211 39.5259 8.27176C41.0478 7.33253 42.8266 6.86292 44.8621 6.86292C46.0987 6.86292 47.2972 7.06285 48.4577 7.46272C49.6181 7.86259 50.6597 8.4903 51.5824 9.34584C52.505 10.2014 53.2327 11.3127 53.7654 12.6797C54.298 14.0374 54.5644 15.688 54.5644 17.6316V19.1101H37.1431V15.9856H50.3838C50.3838 14.8882 50.1556 13.9165 49.699 13.0702C49.2424 12.2147 48.6003 11.5405 47.7728 11.0476C46.9548 10.5548 45.9941 10.3083 44.8907 10.3083C43.6922 10.3083 42.6458 10.5966 41.7517 11.1732C40.8671 11.7404 40.1822 12.4844 39.6971 13.405C39.2215 14.3163 38.9837 15.3067 38.9837 16.3761V18.8172C38.9837 20.2493 39.2405 21.4675 39.7542 22.4719C40.2773 23.4762 41.005 24.2434 41.9372 24.7734C42.8694 25.2942 43.9585 25.5546 45.2046 25.5546C46.0131 25.5546 46.7503 25.443 47.4161 25.2198C48.0819 24.9873 48.6574 24.6433 49.1425 24.1876C49.6276 23.7319 49.9986 23.1693 50.2554 22.4998L54.2933 23.2112C53.9699 24.3736 53.3896 25.3919 52.5526 26.266C51.725 27.1308 50.6835 27.805 49.4279 28.2886C48.1818 28.7629 46.7598 29 45.1618 29Z" fill="white"/>
<path d="M75.7202 12.3728L71.8536 13.0423C71.6919 12.5588 71.4351 12.0984 71.0831 11.6614C70.7407 11.2243 70.2746 10.8663 69.6849 10.5873C69.0951 10.3083 68.3579 10.1688 67.4733 10.1688C66.2653 10.1688 65.257 10.4339 64.4485 10.9639C63.64 11.4847 63.2357 12.1589 63.2357 12.9865C63.2357 13.7026 63.5068 14.2791 64.049 14.7162C64.5912 15.1533 65.4663 15.5113 66.6743 15.7903L70.1557 16.5714C72.1722 17.0271 73.6751 17.7292 74.6644 18.6777C75.6536 19.6263 76.1483 20.8584 76.1483 22.3742C76.1483 23.6575 75.7678 24.8013 75.0068 25.8057C74.2554 26.8007 73.2043 27.5819 71.8536 28.1491C70.5124 28.7164 68.9572 29 67.188 29C64.7339 29 62.7316 28.4885 61.1811 27.4656C59.6307 26.4334 58.6795 24.9687 58.3275 23.0717L62.451 22.4579C62.7078 23.5087 63.2357 24.3038 64.0347 24.8432C64.8337 25.3733 65.8753 25.6383 67.1594 25.6383C68.5577 25.6383 69.6754 25.3547 70.5124 24.7874C71.3495 24.2108 71.768 23.5087 71.768 22.6811C71.768 22.0115 71.5112 21.4489 70.9975 20.9933C70.4934 20.5376 69.7182 20.1935 68.6718 19.961L64.9622 19.1659C62.9171 18.7103 61.4047 17.9849 60.4249 16.9899C59.4547 15.9949 58.9696 14.7348 58.9696 13.2097C58.9696 11.945 59.3311 10.8384 60.054 9.88985C60.7769 8.94132 61.7756 8.20202 63.0503 7.67196C64.3249 7.1326 65.785 6.86292 67.4305 6.86292C69.799 6.86292 71.6634 7.36508 73.0236 8.36941C74.3838 9.36444 75.2827 10.6989 75.7202 12.3728Z" fill="white"/>
<path d="M91.069 7.14189V10.4897H79.0982V7.14189H91.069ZM82.3085 2.00866H86.5746V22.2766C86.5746 23.0856 86.6983 23.6947 86.9456 24.1039C87.1929 24.5038 87.5115 24.7781 87.9015 24.9269C88.301 25.0664 88.7338 25.1361 89.1999 25.1361C89.5423 25.1361 89.842 25.1129 90.0988 25.0664C90.3556 25.0199 90.5554 24.9827 90.6981 24.9548L91.4685 28.4002C91.2212 28.4932 90.8693 28.5862 90.4127 28.6792C89.9561 28.7815 89.3854 28.8373 88.7005 28.8466C87.5781 28.8652 86.5318 28.6699 85.5616 28.2607C84.5913 27.8515 83.8066 27.2192 83.2074 26.3636C82.6081 25.5081 82.3085 24.434 82.3085 23.1414V2.00866Z" fill="white"/>
<path d="M104.784 29C102.73 29 100.937 28.5397 99.4051 27.619C97.8737 26.6984 96.6847 25.4105 95.8381 23.7552C94.9915 22.0999 94.5682 20.1656 94.5682 17.9524C94.5682 15.7298 94.9915 13.7863 95.8381 12.1217C96.6847 10.4571 97.8737 9.1645 99.4051 8.24387C100.937 7.32323 102.73 6.86292 104.784 6.86292C106.839 6.86292 108.632 7.32323 110.163 8.24387C111.695 9.1645 112.884 10.4571 113.73 12.1217C114.577 13.7863 115 15.7298 115 17.9524C115 20.1656 114.577 22.0999 113.73 23.7552C112.884 25.4105 111.695 26.6984 110.163 27.619C108.632 28.5397 106.839 29 104.784 29ZM104.798 25.4988C106.13 25.4988 107.233 25.1547 108.109 24.4666C108.984 23.7784 109.63 22.8624 110.049 21.7186C110.477 20.5748 110.691 19.3147 110.691 17.9384C110.691 16.5714 110.477 15.316 110.049 14.1722C109.63 13.0191 108.984 12.0938 108.109 11.3963C107.233 10.6989 106.13 10.3502 104.798 10.3502C103.457 10.3502 102.344 10.6989 101.46 11.3963C100.585 12.0938 99.933 13.0191 99.505 14.1722C99.0864 15.316 98.8772 16.5714 98.8772 17.9384C98.8772 19.3147 99.0864 20.5748 99.505 21.7186C99.933 22.8624 100.585 23.7784 101.46 24.4666C102.344 25.1547 103.457 25.4988 104.798 25.4988Z" fill="white"/>
</svg>
